Patient4_TMGait_0pt7_02_left_50_EMG.mot
version=1
nRows=30
nColumns=33
inDegrees=no
endheader
time	1LAddLong	2LGlutMax	3LGlutMed	4LIliopsoas	5LSemiMemb	6LBicFemLong	7LRecFem	8LVastMed	9LVastLat	10LGasMed	11LTibAnt	12lTibPost	13LPeroneusLong	14LSol	15LExtDigLong	16LFlexDigLong	17RAddLong	18RGlutMax	19RGlutMed	20RIliopsoas	21RSemiMemb	22RBicFemLong	23RRecFem	24RVastMed	25RVastLat	26RGasMed	27RTibAnt	28RTibPost	29RPeroneusLong	30RSol	31RExtDigLong	32RFlexDigLong
58.463	0.000763	-0.30609	-0.067596	0.002441	-0.034332	0.003815	0.071106	-0.001221	0.069885	0.018005	-0.005341	-0.009155	0.069885	-0.023956	0.050659	-0.003204	0.005341	-0.17838	-0.063171	0.25635	0.27481	-0.045624	-0.13504	0.019226	0.075989	0.004883	-0.037537	-0.000916	-0.30991	-0.027161	0.005798	-0.016785
58.464	-0.003357	-0.30685	-0.091553	0.007935	-0.062561	-0.01236	0.080719	0.007477	0.043335	0.00885	0.017242	-0.010834	0.038757	-0.022583	0.023041	-0.005951	0.002899	-0.19943	0.28137	0.13565	0.23178	-0.013275	-0.1944	-0.032806	0.050201	-0.014648	-0.112	-0.008087	0.1236	-0.031891	0.001984	-0.019836
58.465	0.00885	-0.30441	-0.10529	0.01297	-0.047607	-0.046082	0.068817	0.007782	0.048676	-0.009155	0.060883	-0.011902	0.004272	-0.013885	-0.020599	-0.007477	-0.02121	-0.17471	0.31815	0.13321	0.10071	0.14816	-0.085602	0.043488	-0.00946	-0.012207	-0.16312	0	-0.16861	0.03006	-0.00061	-0.009155
58.466	0.009155	-0.32745	-0.081177	0.009003	0	-0.14313	0.065002	0.007477	0.074921	-0.045776	0.082245	-0.02655	-0.003052	-0.015869	-0.062256	-0.000458	-0.022888	-0.18051	0.33341	0.086975	-0.24811	0.20706	0.054474	-0.003204	-0.050201	-0.008087	0.22095	-0.000153	0.62241	0.072327	-0.002136	-0.002899
58.467	0.018921	-0.31891	0.011597	0.010529	0.009918	-0.15991	0.031433	0.006866	0.040741	-0.037842	0.035095	-0.014496	0.003052	0.021362	-0.0383	-0.009613	-0.033264	-0.12573	-0.015869	0.029755	-0.31708	0.080566	0.11215	-0.062103	-0.093994	-0.008087	0.69321	0.002747	0.42511	0.086975	-0.002899	0
58.468	0.018311	-0.30975	0.050507	0.006104	0.001526	-0.12482	0.003815	0.000458	0.021362	-0.017548	-0.099792	-0.035553	-0.010223	0.02243	-0.010529	-0.005798	-0.003204	-0.059509	-0.27664	0.008545	-0.16373	0.002747	0.14252	-0.12741	-0.11124	0	0.48935	0.006104	0.039215	-0.028687	-0.003204	0.006409
58.469	0.023499	-0.33417	-0.027008	0.010681	0.054016	-0.074615	0.014648	-0.001221	0.051727	-0.040131	-0.13504	-0.007324	-0.004883	0.010376	-0.007019	-0.009003	-0.004272	-0.039368	0.025787	-0.058441	0.051117	0.013733	0.028381	-0.092621	-0.009003	-0.001373	-0.060883	0.003052	-0.17563	-0.10315	-0.00351	0.000305
58.47	0.021515	-0.32257	-0.15701	0.009155	0.037842	-0.028839	0.002441	-0.002899	0.093231	-0.059204	-0.12619	-0.019379	0.043335	0.017395	-0.02121	0.001068	-0.013885	-0.16281	0.41519	0.016785	0.2095	-0.029907	-0.15793	-0.036926	0.11673	-0.00885	-0.36926	0.002441	0.1918	-0.090942	-0.001831	-0.003967
58.471	0.013885	-0.31494	-0.17777	-0.001831	0.012817	-0.031281	-0.008698	-0.00473	0.13626	-0.058441	-0.068207	-0.018005	0.050659	0.006409	0.021362	-0.006866	-0.009613	-0.24796	-0.08606	0.1564	0.12528	-0.012512	-0.21088	0.054932	0.1741	-0.010223	-0.25559	0.012665	0.98465	-0.088654	-0.001373	0.000305
58.472	0.012817	-0.27634	-0.030212	0.007782	-0.006714	-0.03006	-0.011902	-0.002136	0.15396	-0.058136	-0.015411	-0.017242	0.000305	-0.072937	0.010986	-0.013275	-0.013733	-0.17288	-0.28732	0.13168	0.062256	-0.001221	-0.22293	0.031128	0.12207	0.002136	0.45624	0.000305	1.0643	-0.12283	0.001831	-0.004883
58.473	0.011139	-0.24185	0.15045	0.005951	-0.016022	-0.026398	0.003967	-0.002289	0.14313	-0.029449	-0.011444	-0.015869	-0.034637	-0.06134	0.000763	-0.005646	-0.00473	-0.10254	0.27695	0.03891	0.010376	0.000458	-0.083771	-0.005951	0.054474	0.001526	0.92697	0.002899	-0.21286	-0.08316	-0.004272	-0.003662
58.474	0.014954	-0.28534	0.13351	0	-0.027618	-0.011902	0.014343	-0.005646	0.13306	0.015411	-0.007782	-0.017242	-0.027771	-0.052948	0.084839	-0.013428	0.032806	-0.16647	0.46066	0.014343	-0.011292	0.017242	0.10727	-0.024109	-0.053406	0.005951	0.83359	-0.003357	-1.0596	-0.079803	0.001526	0.000763
58.475	0.018158	-0.27695	0.14938	0.012054	-0.026245	-0.012817	0.010986	-0.005646	0.1059	0.034637	-0.007935	-0.013428	0.007935	-0.059509	0.097046	-0.018921	0.037231	-0.17075	0.78369	0.074158	-0.016022	0.026703	0.18585	-0.023041	-0.12726	-0.004272	0.70618	0.000305	-0.12894	-0.00946	0.004883	-0.000305
58.476	0.012207	-0.27725	0.062103	0.015411	-0.024414	-0.028534	0.026703	0.000153	0.091553	0.022736	-0.000305	-0.011597	0.027924	-0.031433	0.001526	0.006714	0.020905	-0.19028	0.30624	0.08606	-0.085449	0.063324	0.010376	-0.02533	-0.13672	0.001068	0.82184	-0.001373	-0.18082	-0.11139	-0.000763	-0.002289
58.477	0.011902	-0.28046	0.037079	0.00946	-0.002747	-0.005646	0.032654	0.000305	0.076294	-0.005798	0.012512	-0.016937	0.061646	-0.036011	-0.042267	0.006561	0.009308	-0.24811	-0.49103	0.051117	-0.1091	0.033722	-0.18982	-0.015411	-0.14206	0.000153	0.56046	-0.002289	0.06073	-0.11749	0	-0.00412
58.478	0.013428	-0.27115	-0.015106	0.009003	0.03006	-0.005493	0.043945	0.001221	0.074768	-0.015869	-0.010529	-0.020905	0.15228	-0.00473	-0.036926	-0.002289	-0.011902	-0.21057	-0.2655	0.074158	0.01709	-0.009308	-0.24689	0.062408	0.12924	-0.010681	-0.067749	-0.007629	-0.3685	-0.0737	-0.006409	-0.008392
58.479	0.007019	-0.25726	-0.044861	0.002594	0.002594	0.000153	0.045471	0.007477	0.078583	-0.016022	-0.000916	-0.00885	0.13382	-0.047913	-0.023804	0.001068	-0.005493	-0.16983	-0.058594	-0.003204	0.0354	-0.070953	-0.020447	0.10666	0.28122	-0.01236	-0.728	-0.005035	-0.92071	-0.10895	-0.001373	-0.009003
58.48	0.005646	-0.21851	-0.090332	0.01358	-0.027161	-0.060883	0.036163	-0.001068	0.081329	-0.025635	0.016327	-0.014648	0.07782	-0.021362	-0.012512	0.006714	0.016022	-0.11566	0.26443	-0.055695	0.001831	-0.081635	0.16937	0.093689	0.24918	-0.011902	-0.77667	-0.003204	-1.1876	-0.1738	0	0.000763
58.481	0.005798	-0.19775	-0.081024	-0.007935	-0.010834	-0.095978	0.047913	0.00351	0.074768	-0.029144	0.016632	-0.011444	0.075836	-0.005493	0.07843	-0.001831	0.019379	-0.066071	0.93124	-0.13428	-0.016479	-0.079803	0.14755	0.054932	0.16068	-0.000916	-0.84747	-0.005035	-0.22171	-0.037079	0.000153	-0.003662
58.482	0.01709	-0.2211	-0.06073	0.005493	0.019531	-0.044556	0.057831	0.001831	0.061646	-0.034027	0.057831	-0.014191	0.061493	-0.039368	0.14358	0.002747	0.009918	-0.121	0.6398	-0.088806	0.004272	-0.044556	0.18524	-0.065765	0.095215	0.010681	-0.28946	0.001831	1.5958	0.12772	-0.001831	0.005188
58.483	0.014496	-0.22873	-0.075073	0.013123	0.028229	-0.004578	0.052032	0.002441	0.056	-0.029755	0.099182	-0.006409	0.051575	-0.047302	0.066681	-0.003815	0.002899	-0.17624	-0.082703	-0.069122	-0.007935	-0.03479	0.001984	-0.016479	0.026093	0.011292	0.38361	-0.00351	1.68	0.20706	-0.002441	0.009155
58.484	0.018463	-0.19424	-0.067749	0.0177	-0.007629	0.030518	0.043945	-0.001678	0.042572	-0.050049	0.060883	-0.008087	0.070801	-0.043335	-0.022888	-0.012817	-0.001678	-0.18478	-0.14526	-0.12558	-0.016327	-0.013275	-0.18585	-0.037994	-0.11917	0.006409	-0.19592	-0.001068	0.74631	0.031281	0.000153	0.000305
58.485	0.019836	-0.19058	-0.064087	-0.00061	-0.059967	0.011139	0.054016	0.000763	0.034485	-0.060272	-0.027313	-0.001221	0.086823	-0.036469	-0.041504	0.000458	-0.007935	-0.16403	0.096588	-0.050964	-0.024109	-0.018768	-0.18188	-0.20676	-0.12573	-0.008698	-1.1327	-0.00412	-0.034637	-0.080261	-0.001221	0.001221
58.486	0.017548	-0.16052	0.007477	-0.007782	-0.06897	-0.00473	0.044708	0.003357	0.028076	-0.068665	0.004425	-0.006409	0.081482	-0.042877	-0.033569	-0.007629	0.011292	-0.12024	0.13046	-0.040131	-0.042725	-0.05188	-0.05127	-0.11154	-0.10574	-0.009003	-0.92956	-0.007172	-0.47104	0.019226	-0.001068	-0.00061
58.487	0.019531	-0.12497	-0.057068	0.000763	0.036469	-0.041809	0.037079	0.002136	0.0177	-0.042419	0.001831	-0.019684	0.044861	-0.051727	-0.082855	-0.007324	-0.005951	-0.17197	-0.078735	-0.18005	-0.039368	-0.037231	-0.40756	0.11444	0.028534	-0.003967	-0.64972	-0.009918	-0.2182	0.12207	-0.003815	-0.002747
58.488	0.021973	-0.14862	-0.17716	0.01709	0.062103	-0.023804	0.033722	0.005951	0.022736	-0.032043	-0.031433	-0.002899	0.070496	-0.077972	-0.10788	0.000763	-0.00351	-0.23972	0.056915	-0.1944	-0.053101	-0.032349	-0.26199	0.097809	0.11078	-0.001678	0.16037	-0.00885	1.2244	0.14114	0.006714	-0.002136
58.489	0.02243	-0.11826	-0.17487	0.00946	0.030823	-0.003967	0.033112	0.004272	0.026855	-0.05661	-0.0383	-0.015564	0.067139	-0.068512	-0.17502	-0.012817	0.025024	-0.26108	0.02533	-0.090942	-0.071259	-0.063782	-0.085602	-0.003204	-0.098114	-0.000305	0.43457	-0.005493	1.3847	0.068817	0.00351	0.000153
58.49	0.025177	-0.103	-0.10056	0.00824	0.023193	0.046692	0.033875	0.003052	0.0354	-0.049438	-0.025482	-0.005951	0.068665	-0.061798	0.10757	-0.015411	0.007629	-0.24567	-0.3624	0.044708	-0.054016	-0.027771	0.012054	0.0737	-0.080566	-0.011444	0.42435	-0.000305	-0.12512	-0.033417	0.002594	-0.002136
58.491	0.004272	-0.060577	0.003052	0.007477	0.018158	0.072174	0.036621	0.003967	0.043335	-0.047913	0.003815	-0.014648	0.080719	-0.064545	0.10544	0.000763	-0.001831	-0.20248	-0.28397	0.15335	-0.045776	-0.007172	0.103	0.062866	-0.089569	-0.00946	0.18875	-0.005188	-0.34546	-0.092163	0.001984	-0.001831
58.492	0.009155	-0.10178	0.063782	0.011139	-0.001221	0.069122	0.010986	-0.00473	0.036469	-0.03891	-0.011292	-0.00824	0.079041	-0.06073	-0.019226	-0.001526	0.004883	-0.19424	-0.52399	-0.007477	-0.018921	-0.008087	-0.00824	0.054016	-0.076599	0.003204	-0.076141	-0.003967	-0.73883	-0.064545	-0.003052	-0.008698
